{"title":"Buddenbrooks-AC3-5,1-DVDRip[Ger]2008","uid":5090709,"size":1729036678,"categoryP":"video","categoryS":"movies","magnet":"?xt=urn:btih:5058d6179f1c531317300b08c5b54ac18d6253dd&amp;dn=Buddenbrooks-AC3-5%2C1-DVDRip%5BGer%5D2008&amp;tr=udp%3A%2F%2Ftracker.openbittorrent.com%3A80&amp;tr=udp%3A%2F%2Fopen.demonii.com%3A1337&amp;tr=udp%3A%2F%2Ftracker.coppersurfer.tk%3A6969&amp;tr=udp%3A%2F%2Fexodus.desync.com%3A6969","seeders":1,"leechers":0,"uploader":"FatFreddy31","files":-1,"time":1253118980,"description":" &lt;a href=&quot;http://www.imdb.com/title/tt1058601/&quot; rel=&quot;nofollow&quot; target=&quot;_NEW&quot;&gt;http://www.imdb.com/title/tt1058601/&lt;/a&gt;\n &lt;a href=&quot;\nhttp://wwws.warnerbros.de/buddenbrooks/&quot; rel=&quot;nofollow&quot; target=&quot;_NEW&quot;&gt;\nhttp://wwws.warnerbros.de/buddenbrooks/&lt;/a&gt;\n\nUser Rating:5.8/10 - 216 votes\n\nDrama\n\nDirector:Heinrich Breloer\n\nCast:Armin Mueller-Stahl/Iris Berben/Jessica Schwarz/August Diehl, and others.\n\nInfo:\n\nGeneral\nComplete name                    : Buddenbrooks-AC3-5,1-DVDRip[Ger]2008.avi\nFormat                           : AVI\nFormat/Info                      : Audio Video Interleave\nFile size                        : 1.61 GiB\nDuration                         : 2h 25mn\nOverall bit rate                 : 1 588 Kbps\nWriting application              : VirtualDubMod 1.5.4.1 (build 2178/release)\nWriting library                  : VirtualDubMod build 2178/release\n\nVideo\nFormat                           : MPEG-4 Visual\nFormat profile                   : Streaming Video@L1\nFormat settings, BVOP            : Yes\nFormat settings, QPel            : No\nFormat settings, GMC             : No warppoints\nFormat settings, Matrix          : Default\nMuxing mode                      : Packed bitstream\nCodec ID                         : XVID\nCodec ID/Hint                    : XviD\nDuration                         : 2h 25mn\nBit rate                         : 1 197 Kbps\nWidth                            : 704 pixels\nHeight                           : 304 pixels\nDisplay aspect ratio             : 2.35\nFrame rate                       : 25.000 fps\nResolution                       : 24 bits\nColorimetry                      : 4:2:0\nScan type                        : Progressive\nBits/(Pixel*Frame)               : 0.224\nStream size                      : 1.21 GiB (75%)\nWriting library                  : XviD 50\n\nAudio\nFormat                           : AC-3\nFormat/Info                      : Audio Coding 3\nCodec ID                         : 2000\nDuration                         : 2h 25mn\nBit rate mode                    : Constant\nBit rate                         : 384 Kbps\nChannel(s)                       : 6 channels\nChannel positions                : Front: L C R, Surround: L R, LFE\nSampling rate                    : 48.0 KHz\nStream size                      : 399 MiB (24%)\nAlignment                        : Split accross interleaves\nInterleave, duration             : 80 ms (2.00 video frames)\nInterleave, preload duration     : 500 ms\nLanguage                         : Deutsch\n\nEnjoy...","torrent":{"xt":"urn:btih:5058d6179f1c531317300b08c5b54ac18d6253dd","amp;dn":"Buddenbrooks-AC3-5%2C1-DVDRip%5BGer%5D2008","amp;tr":["udp%3A%2F%2Ftracker.openbittorrent.com%3A80","udp%3A%2F%2Fopen.demonii.com%3A1337","udp%3A%2F%2Ftracker.coppersurfer.tk%3A6969","udp%3A%2F%2Fexodus.desync.com%3A6969"],"infoHash":"5058d6179f1c531317300b08c5b54ac18d6253dd","infoHashBuffer":{"type":"Buffer","data":[80,88,214,23,159,28,83,19,23,48,11,8,197,181,74,193,141,98,83,221]},"announce":[],"urlList":[]}}